HIERARCHY
ROOT Hips
{
  OFFSET 363.916 89.4436 202.859
  CHANNELS 6 Xposition Yposition Zposition Zrotation Xrotation Yrotation
  JOINT RightUpLeg
  {
    OFFSET -9.22681 -1.41939 0.059526
    CHANNELS 3 Zrotation Xrotation Yrotation
    JOINT RightLeg
    {
      OFFSET 0.076897 -41.8891 0.179098
      CHANNELS 3 Zrotation Xrotation Yrotation
      JOINT RightFoot
      {
        OFFSET -0.0130714 -43.0092 0.527065
        CHANNELS 3 Zrotation Xrotation Yrotation
        End Site
        {
          OFFSET 0 -7.69 17.5
        }
      }
    }
  }
  JOINT LeftUpLeg
  {
    OFFSET 9.19333 -1.7604 -0.077889
    CHANNELS 3 Zrotation Xrotation Yrotation
    JOINT LeftLeg
    {
      OFFSET -0.0291634 -41.859 -0.15197
      CHANNELS 3 Zrotation Xrotation Yrotation
      JOINT LeftFoot
      {
        OFFSET 0.141288 -40.5593 0.458407
        CHANNELS 3 Zrotation Xrotation Yrotation
        End Site
        {
          OFFSET 0 -7.69 17.5
        }
      }
    }
  }
  JOINT Spine
  {
    OFFSET 0.215607 14.2961 0.04713
    CHANNELS 3 Zrotation Xrotation Yrotation
    JOINT Spine1
    {
      OFFSET 0.127345 9.70675 0.00151561
      CHANNELS 3 Zrotation Xrotation Yrotation
      JOINT Spine2
      {
        OFFSET 0.0493166 10.1169 -0.00299987
        CHANNELS 3 Zrotation Xrotation Yrotation
        JOINT Spine3
        {
          OFFSET 0.0599611 9.70888 0.0197622
          CHANNELS 3 Zrotation Xrotation Yrotation
          JOINT Neck
          {
            OFFSET 0.305156 10.372 0.0704915
            CHANNELS 3 Zrotation Xrotation Yrotation
            JOINT Head
            {
              OFFSET 0.288394 9.47974 0.0406202
              CHANNELS 3 Zrotation Xrotation Yrotation
              End Site
              {
                OFFSET 0 15.95 0
              }
            }
          }
          JOINT RightShoulder
          {
            OFFSET -3.14873 6.92098 0.0285763
            CHANNELS 3 Zrotation Xrotation Yrotation
            JOINT RightArm
            {
              OFFSET -12.7049 -0.00288304 0.0369593
              CHANNELS 3 Zrotation Xrotation Yrotation
              JOINT RightForeArm
              {
                OFFSET -26.4954 -0.160471 0.0134548
                CHANNELS 3 Zrotation Xrotation Yrotation
                JOINT RightHand
                {
                  OFFSET -26.0026 -0.0211725 -0.0218708
                  CHANNELS 3 Zrotation Xrotation Yrotation
                  JOINT RightHandThumb1
                  {
                    OFFSET -2.48905 0.190105 3.12053
                    CHANNELS 3 Zrotation Xrotation Yrotation
                    JOINT RightHandThumb2
                    {
                      OFFSET -3.68274 0 0
                      CHANNELS 3 Zrotation Xrotation Yrotation
                      JOINT RightHandThumb3
                      {
                        OFFSET -2.55832 0 0
                        CHANNELS 3 Zrotation Xrotation Yrotation
                        End Site
                        {
                          OFFSET -2.194 0 0
                        }
                      }
                    }
                  }
                  JOINT RightInHandIndex
                  {
                    OFFSET -3.22368 0.508421 1.97842
                    CHANNELS 3 Zrotation Xrotation Yrotation
                    JOINT RightHandIndex1
                    {
                      OFFSET -5.21684 -0.091368 0.999158
                      CHANNELS 3 Zrotation Xrotation Yrotation
                      JOINT RightHandIndex2
                      {
                        OFFSET -3.61937 0 0
                        CHANNELS 3 Zrotation Xrotation Yrotation
                        JOINT RightHandIndex3
                        {
                          OFFSET -2.0521 0 0
                          CHANNELS 3 Zrotation Xrotation Yrotation
                          End Site
                          {
                            OFFSET -1.805 0 0
                          }
                        }
                      }
                    }
                  }
                  JOINT RightInHandMiddle
                  {
                    OFFSET -3.38211 0.517263 0.756737
                    CHANNELS 3 Zrotation Xrotation Yrotation
                    JOINT RightHandMiddle1
                    {
                      OFFSET -5.17411 -0.084 0.313895
                      CHANNELS 3 Zrotation Xrotation Yrotation
                      JOINT RightHandMiddle2
                      {
                        OFFSET -3.94947 0 0
                        CHANNELS 3 Zrotation Xrotation Yrotation
                        JOINT RightHandMiddle3
                        {
                          OFFSET -2.47579 0 0
                          CHANNELS 3 Zrotation Xrotation Yrotation
                          End Site
                          {
                            OFFSET -1.975 0 0
                          }
                        }
                      }
                    }
                  }
                  JOINT RightInHandRing
                  {
                    OFFSET -3.36516 0.537895 -0.128947
                    CHANNELS 3 Zrotation Xrotation Yrotation
                    JOINT RightHandRing1
                    {
                      OFFSET -4.63474 -0.022105 -0.478947
                      CHANNELS 3 Zrotation Xrotation Yrotation
                      JOINT RightHandRing2
                      {
                        OFFSET -3.44238 0 0
                        CHANNELS 3 Zrotation Xrotation Yrotation
                        JOINT RightHandRing3
                        {
                          OFFSET -2.3881 0 0
                          CHANNELS 3 Zrotation Xrotation Yrotation
                          End Site
                          {
                            OFFSET -1.857 0 0
                          }
                        }
                      }
                    }
                  }
                  JOINT RightInHandPinky
                  {
                    OFFSET -3.16105 0.469368 -1.20179
                    CHANNELS 3 Zrotation Xrotation Yrotation
                    JOINT RightHandPinky1
                    {
                      OFFSET -4.14105 -0.022105 -1.09053
                      CHANNELS 3 Zrotation Xrotation Yrotation
                      JOINT RightHandPinky2
                      {
                        OFFSET -2.75653 0 0
                        CHANNELS 3 Zrotation Xrotation Yrotation
                        JOINT RightHandPinky3
                        {
                          OFFSET -1.74189 0 0
                          CHANNELS 3 Zrotation Xrotation Yrotation
                          End Site
                          {
                            OFFSET -1.645 0 0
                          }
                        }
                      }
                    }
                  }
                }
              }
            }
          }
          JOINT LeftShoulder
          {
            OFFSET 3.26342 6.92519 -0.0174379
            CHANNELS 3 Zrotation Xrotation Yrotation
            JOINT LeftArm
            {
              OFFSET 12.8742 -0.0269705 -0.0666419
              CHANNELS 3 Zrotation Xrotation Yrotation
              JOINT LeftForeArm
              {
                OFFSET 26.5114 0.000826062 -0.052783
                CHANNELS 3 Zrotation Xrotation Yrotation
                JOINT LeftHand
                {
                  OFFSET 25.9941 -0.0689373 0.00603348
                  CHANNELS 3 Zrotation Xrotation Yrotation
                  JOINT LeftHandThumb1
                  {
                    OFFSET 2.48905 0.190105 3.12053
                    CHANNELS 3 Zrotation Xrotation Yrotation
                    JOINT LeftHandThumb2
                    {
                      OFFSET 3.68274 0 0
                      CHANNELS 3 Zrotation Xrotation Yrotation
                      JOINT LeftHandThumb3
                      {
                        OFFSET 2.55832 0 0
                        CHANNELS 3 Zrotation Xrotation Yrotation
                        End Site
                        {
                          OFFSET 2.194 0 0
                        }
                      }
                    }
                  }
                  JOINT LeftInHandIndex
                  {
                    OFFSET 3.22368 0.508421 1.97842
                    CHANNELS 3 Zrotation Xrotation Yrotation
                    JOINT LeftHandIndex1
                    {
                      OFFSET 5.21684 -0.091368 0.999158
                      CHANNELS 3 Zrotation Xrotation Yrotation
                      JOINT LeftHandIndex2
                      {
                        OFFSET 3.61937 0 0
                        CHANNELS 3 Zrotation Xrotation Yrotation
                        JOINT LeftHandIndex3
                        {
                          OFFSET 2.0521 0 0
                          CHANNELS 3 Zrotation Xrotation Yrotation
                          End Site
                          {
                            OFFSET 1.805 0 0
                          }
                        }
                      }
                    }
                  }
                  JOINT LeftInHandMiddle
                  {
                    OFFSET 3.38211 0.517263 0.756737
                    CHANNELS 3 Zrotation Xrotation Yrotation
                    JOINT LeftHandMiddle1
                    {
                      OFFSET 5.17411 -0.084 0.313895
                      CHANNELS 3 Zrotation Xrotation Yrotation
                      JOINT LeftHandMiddle2
                      {
                        OFFSET 3.94947 0 0
                        CHANNELS 3 Zrotation Xrotation Yrotation
                        JOINT LeftHandMiddle3
                        {
                          OFFSET 2.47579 0 0
                          CHANNELS 3 Zrotation Xrotation Yrotation
                          End Site
                          {
                            OFFSET 1.975 0 0
                          }
                        }
                      }
                    }
                  }
                  JOINT LeftInHandRing
                  {
                    OFFSET 3.36516 0.537895 -0.128947
                    CHANNELS 3 Zrotation Xrotation Yrotation
                    JOINT LeftHandRing1
                    {
                      OFFSET 4.63474 -0.022105 -0.478947
                      CHANNELS 3 Zrotation Xrotation Yrotation
                      JOINT LeftHandRing2
                      {
                        OFFSET 3.44238 0 0
                        CHANNELS 3 Zrotation Xrotation Yrotation
                        JOINT LeftHandRing3
                        {
                          OFFSET 2.3881 0 0
                          CHANNELS 3 Zrotation Xrotation Yrotation
                          End Site
                          {
                            OFFSET 1.857 0 0
                          }
                        }
                      }
                    }
                  }
                  JOINT LeftInHandPinky
                  {
                    OFFSET 3.16105 0.469368 -1.20179
                    CHANNELS 3 Zrotation Xrotation Yrotation
                    JOINT LeftHandPinky1
                    {
                      OFFSET 4.14105 -0.022105 -1.09053
                      CHANNELS 3 Zrotation Xrotation Yrotation
                      JOINT LeftHandPinky2
                      {
                        OFFSET 2.75653 0 0
                        CHANNELS 3 Zrotation Xrotation Yrotation
                        JOINT LeftHandPinky3
                        {
                          OFFSET 1.74189 0 0
                          CHANNELS 3 Zrotation Xrotation Yrotation
                          End Site
                          {
                            OFFSET 1.645 0 0
                          }
                        }
                      }
                    }
                  }
                }
              }
            }
          }
        }
      }
    }
  }
}
MOTION
Frames: 3
Frame Time: 0.00833333
7.500663318279885061e+02 -3.329834611445730685e-03 1.653753146501206472e-02 8.129996481257474594e-02 -3.876189926559348020e-02 -1.959574549058894222e-01 4.577371607248754970e-03 -7.355723414806467075e-02 -5.758169175806544110e-02 6.633835532560918014e-02 -1.331203983756998332e-01 8.488660971688732904e-02 -3.682653032690476336e-02 9.808579458983009147e-02 3.515227919443638521e-02 7.453813930529978871e-02 -3.295322133567319539e-02 8.354205920872879998e-02 5.030973797920600121e-02 1.697885952986449148e-02 -3.210015176371390500e-02 4.782793366074624547e-02 1.768476012123069638e-02 1.266838755871491640e-01 8.216454719033946738e-03 -5.001210358516058191e-02 -1.372722598105904357e-01 7.925555708201102723e-05 -1.319930622984356351e-02 -3.392415200943442455e-02 3.470697896504606680e-04 -2.161018053394595656e-02 -5.576753627994464335e-02 -2.733409084722683308e-03 -2.083378972998286313e-04 8.323413434350536433e-03 7.864859258317973001e-03 -5.043298912534324892e-03 1.288198033262907549e-01 -4.831385314751290155e-02 2.789685762385578360e-03 5.995524195161188591e-02 8.522634502274530413e-03 2.865084532762689554e-02 -7.660922070560451103e-02 -1.934354128331651768e-01 -1.556772135675792423e-01 -1.014183907498791420e-01 3.399509290958471208e-01 -4.864025108350921722e-01 4.836122835783832619e-01 6.894470137613001488e-03 -9.260534400185342629e-02 1.877979251754972878e-01 0.000000000000000000e+00 0.000000000000000000e+00 0.000000000000000000e+00 -1.274818785314492759e-16 -3.129595058387839692e-16 0.000000000000000000e+00 -4.821456849427641409e-16 -6.100287622863660150e-16 0.000000000000000000e+00 2.044038104784943132e-16 6.293066184585584759e-16 -2.161675250915860827e-16 0.000000000000000000e+00 0.000000000000000000e+00 0.000000000000000000e+00 0.000000000000000000e+00 -4.117468127266559513e-17 6.571677671757065739e-16 0.000000000000000000e+00 5.277029972533607926e-15 3.046329514995451616e-14 2.044038104784943132e-16 6.293066184585584759e-16 -2.161675250915860827e-16 0.000000000000000000e+00 -4.398864437927740441e-16 9.167019943042535952e-16 0.000000000000000000e+00 1.952334499579328476e-16 1.955013318652149234e-16 0.000000000000000000e+00 -3.084426278624973819e-15 -2.188804840704906526e-14 2.044038104784943132e-16 6.293066184585584759e-16 -2.161675250915860827e-16 0.000000000000000000e+00 0.000000000000000000e+00 0.000000000000000000e+00 0.000000000000000000e+00 3.169188539610851658e-16 5.565493786803857415e-16 0.000000000000000000e+00 -2.826432687568793372e-15 -1.411731990368474919e-14 2.044038104784943132e-16 6.293066184585584759e-16 -2.161675250915860827e-16 0.000000000000000000e+00 0.000000000000000000e+00 0.000000000000000000e+00 0.000000000000000000e+00 -8.420584797025308055e-16 1.206983621057674410e-15 0.000000000000000000e+00 -2.171036243179962511e-16 -5.730922752287445713e-15 9.383270195188806286e-04 -3.147651765782551181e-02 2.756444584763198535e-02 7.339741336959026974e-02 1.155516525044972612e-02 -5.270976502672517633e-02 3.913029516250071671e-01 -7.487640382728533162e-02 2.457806396318189535e-01 -2.611034206855131906e-02 -2.084968121514823858e-01 -2.327237045272258567e-02 0.000000000000000000e+00 0.000000000000000000e+00 0.000000000000000000e+00 -6.333603372075247306e-17 5.822172340256735840e-16 0.000000000000000000e+00 -1.007808499749054003e-16 1.526083543971873927e-15 0.000000000000000000e+00 -1.294170358257600536e-16 -1.313995403059446243e-16 2.376511361578510068e-16 0.000000000000000000e+00 0.000000000000000000e+00 0.000000000000000000e+00 0.000000000000000000e+00 8.530537309338140435e-16 -2.384028527587373915e-15 0.000000000000000000e+00 2.629763612452490667e-17 -2.060152055425875418e-15 -1.294170358257600536e-16 -1.313995403059446243e-16 2.376511361578510068e-16 0.000000000000000000e+00 -2.554529455485174625e-18 -2.186890974456245027e-15 0.000000000000000000e+00 1.079075662129231594e-15 -2.873751281977197790e-15 0.000000000000000000e+00 1.801934324833046204e-16 -2.810881242119952656e-15 -1.294170358257600536e-16 -1.313995403059446243e-16 2.376511361578510068e-16 0.000000000000000000e+00 0.000000000000000000e+00 0.000000000000000000e+00 0.000000000000000000e+00 6.646801402867480396e-16 -2.594959710325141958e-15 0.000000000000000000e+00 3.585123454536971323e-16 -2.085858568175347566e-15 -1.294170358257600536e-16 -1.313995403059446243e-16 2.376511361578510068e-16 0.000000000000000000e+00 0.000000000000000000e+00 0.000000000000000000e+00 0.000000000000000000e+00 5.758187014684061936e-16 -1.851854150157899531e-15 0.000000000000000000e+00 3.586244328064068761e-16 -2.796718653456520334e-15
7.500259558804419839e+02 2.307454334071869576e-04 -3.331120890326255690e-02 4.713188606285823035e-02 1.783072000358378734e-02 -3.191660630042674612e-02 -5.693389650399192925e-02 -4.022752305174413789e-02 -1.243235447995710008e-01 5.395826238707712025e-02 -6.728030262073843304e-02 3.815277986299982910e-02 -2.392279761629558313e-02 3.379302941087982542e-02 -2.196456360019666612e-02 6.641224326113218113e-02 -4.804291271999307916e-02 5.605747003713998367e-02 5.347079884243987474e-02 -3.276565575442527689e-02 -7.425064576628981339e-02 1.580331881338721978e-03 5.068467119187815978e-02 3.487394570319629628e-02 9.895266089406853233e-03 -2.215878521017395492e-02 -8.869542850777022147e-02 1.396364543352355062e-03 -4.297419330063488065e-03 -2.197440267573618281e-02 2.353328479685490998e-03 -6.337372340342121643e-03 -3.608046976691579172e-02 1.735465059656580782e-04 -1.854700293708306299e-03 3.692568539103844270e-03 5.167064398863250446e-03 -1.995610255471930855e-02 1.277625637189676033e-01 8.797069018860166276e-03 -6.838024318012655978e-04 -2.364163557266189819e-02 2.712921399271392073e-02 7.467564553552024850e-03 -5.505706276926411458e-02 -2.435244363519221966e-01 -2.251549492158457302e-02 -3.515626946196158745e-05 2.416795688136124942e-01 -2.751049773180684888e-01 2.402352814368491907e-01 -4.871602537020411697e-03 -9.361623045231780293e-02 8.875865384055173224e-02 0.000000000000000000e+00 0.000000000000000000e+00 0.000000000000000000e+00 2.034952949029451979e-16 -1.939912013005028785e-16 0.000000000000000000e+00 -3.622102178391391751e-16 -5.950963413271319741e-16 0.000000000000000000e+00 3.828189446499718841e-16 5.253458920569214786e-16 -2.852323856697545608e-16 0.000000000000000000e+00 0.000000000000000000e+00 0.000000000000000000e+00 0.000000000000000000e+00 -7.689186983805791167e-17 4.945056032742594112e-16 0.000000000000000000e+00 5.899632695097866369e-15 3.405403262745245773e-14 3.828189446499718841e-16 5.253458920569214786e-16 -2.852323856697545608e-16 0.000000000000000000e+00 -3.191072696740090695e-16 7.968107632697627654e-16 0.000000000000000000e+00 1.080839512301156654e-16 -1.255666711266581166e-16 0.000000000000000000e+00 -4.013581843750550521e-15 -2.639782432427093740e-14 3.828189446499718841e-16 5.253458920569214786e-16 -2.852323856697545608e-16 0.000000000000000000e+00 0.000000000000000000e+00 0.000000000000000000e+00 0.000000000000000000e+00 4.463698908226386608e-16 2.782721227122597366e-16 0.000000000000000000e+00 -3.025722876947044066e-15 -1.619226833729523915e-14 3.828189446499718841e-16 5.253458920569214786e-16 -2.852323856697545608e-16 0.000000000000000000e+00 0.000000000000000000e+00 0.000000000000000000e+00 0.000000000000000000e+00 -7.719793790857397798e-16 1.024322688250330135e-15 0.000000000000000000e+00 -1.929332137490525529e-16 -6.659455253847949516e-15 5.577287188359847251e-04 -3.840891116915129411e-02 3.593267400090386504e-02 1.068919243738573333e-01 1.807367622033745694e-02 -9.957369856964022603e-02 2.648720789857450519e-01 -2.438931232476750366e-01 2.057920037986274431e-01 -1.350170059233324685e-02 -2.147261409899532403e-01 -1.149280693112313817e-02 0.000000000000000000e+00 0.000000000000000000e+00 0.000000000000000000e+00 2.918377032742301679e-17 5.073678072894234413e-16 0.000000000000000000e+00 -8.861701098824221467e-17 1.585107736193592351e-15 0.000000000000000000e+00 -9.080106844151572967e-17 -1.071550668825896067e-16 2.799541904057721802e-16 0.000000000000000000e+00 0.000000000000000000e+00 0.000000000000000000e+00 0.000000000000000000e+00 8.000409527345711485e-16 -2.218808782055412666e-15 0.000000000000000000e+00 -3.101701522197808577e-17 -1.811631840866085141e-15 -9.080106844151572967e-17 -1.071550668825896067e-16 2.799541904057721802e-16 0.000000000000000000e+00 1.544551412631270265e-16 -1.946945113966533351e-15 0.000000000000000000e+00 1.065794532198394299e-15 -2.766858604766239622e-15 0.000000000000000000e+00 9.924218331345131470e-17 -2.659392943111694058e-15 -9.080106844151572967e-17 -1.071550668825896067e-16 2.799541904057721802e-16 0.000000000000000000e+00 0.000000000000000000e+00 0.000000000000000000e+00 0.000000000000000000e+00 5.597965278425161858e-16 -2.406796002581011589e-15 0.000000000000000000e+00 2.965009516623719227e-16 -2.020780906869967468e-15 -9.080106844151572967e-17 -1.071550668825896067e-16 2.799541904057721802e-16 0.000000000000000000e+00 0.000000000000000000e+00 0.000000000000000000e+00 0.000000000000000000e+00 5.785300938365619422e-16 -1.684469021864419812e-15 0.000000000000000000e+00 2.595180717841400133e-16 -2.718352077170586779e-15
7.499950794897548576e+02 2.908012115247150548e-03 -6.752368171020692311e-02 1.979428433155155237e-02 5.762828288515282893e-02 8.975892747023185569e-02 -9.532645678007307943e-02 -1.446150893249521958e-02 -1.583861855972155119e-01 4.069459344744563722e-02 -1.538559767145373028e-02 -1.122436514871414910e-03 -1.171536133985772409e-02 -1.557130557777823207e-02 -6.466277902708865433e-02 5.765629682490617386e-02 -5.758195310846247333e-02 3.232888536330377760e-02 5.048595572368998891e-02 -6.636320578750622146e-02 -9.803080830729217487e-02 -3.128854285837349286e-02 7.098198035607111711e-02 -3.383066801134717444e-02 9.948298829646040620e-03 -5.780624214002990507e-05 -4.741840515200479445e-02 2.161706726856803262e-03 2.467647257793885527e-03 -1.180466996937339433e-02 3.485887097660127828e-03 5.115460701364586693e-03 -1.931689532597113262e-02 2.173320577548151951e-03 -2.994480667805354736e-03 3.329130610919450359e-04 3.460316622143747717e-03 -2.910063704991409234e-02 1.207555619135416980e-01 4.841284760240249785e-02 -3.554112676144726909e-03 -8.093592939695298805e-02 4.217711105552342937e-02 -1.155191046142723353e-02 -4.183009487642988522e-02 -2.682925353354604914e-01 8.222638189525330321e-02 7.280775303092962281e-02 1.704566277439592548e-01 -1.087570018072244182e-01 5.910261019693685558e-02 -1.917027297191737853e-02 -8.220891532170182536e-02 2.835492666387725604e-03 0.000000000000000000e+00 0.000000000000000000e+00 0.000000000000000000e+00 4.444326474539601274e-16 -6.383914980965186773e-17 0.000000000000000000e+00 -2.511876640790108310e-16 -5.312699678441377681e-16 0.000000000000000000e+00 5.178170742262070629e-16 3.909427258935368316e-16 -3.182645900370943406e-16 0.000000000000000000e+00 0.000000000000000000e+00 0.000000000000000000e+00 0.000000000000000000e+00 -9.068119663518257004e-17 3.040617787203492624e-16 0.000000000000000000e+00 5.845735871072237256e-15 3.374350891505913314e-14 5.178170742262070629e-16 3.909427258935368316e-16 -3.182645900370943406e-16 0.000000000000000000e+00 -1.890943535338397733e-16 6.204124123352612080e-16 0.000000000000000000e+00 8.427903886693981500e-18 -4.061657819011371029e-16 0.000000000000000000e+00 -4.392115383290625299e-15 -2.757246814191413320e-14 5.178170742262070629e-16 3.909427258935368316e-16 -3.182645900370943406e-16 0.000000000000000000e+00 0.000000000000000000e+00 0.000000000000000000e+00 0.000000000000000000e+00 5.047886137118985285e-16 1.040884907302460940e-17 0.000000000000000000e+00 -2.891030438084507950e-15 -1.635509532266824185e-14 5.178170742262070629e-16 3.909427258935368316e-16 -3.182645900370943406e-16 0.000000000000000000e+00 0.000000000000000000e+00 0.000000000000000000e+00 0.000000000000000000e+00 -6.186844938050160535e-16 7.880635445584486994e-16 0.000000000000000000e+00 -1.119990009575842291e-16 -6.770183451990678727e-15 1.821842433228237305e-03 -4.331467524254923457e-02 3.972732995219289964e-02 1.243790356242047562e-01 2.429405479274807794e-02 -1.265501075181018897e-01 1.543364725645054447e-01 -3.550847473705181501e-01 1.616949702791536936e-01 -3.289098068432221977e-03 -1.952928454962620797e-01 -2.956997701119568056e-03 0.000000000000000000e+00 0.000000000000000000e+00 0.000000000000000000e+00 1.467711387430184416e-16 3.696518025960462038e-16 0.000000000000000000e+00 -8.985834409208489422e-17 1.531429795044530168e-15 0.000000000000000000e+00 -4.601432220575914020e-17 -9.225016836144630412e-17 2.929792826192616295e-16 0.000000000000000000e+00 0.000000000000000000e+00 0.000000000000000000e+00 0.000000000000000000e+00 6.913391932030305273e-16 -1.874791192772417359e-15 0.000000000000000000e+00 -8.324679453240889300e-17 -1.440164519205540639e-15 -4.601432220575914020e-17 -9.225016836144630412e-17 2.929792826192616295e-16 0.000000000000000000e+00 2.845724427646362702e-16 -1.601983666160092124e-15 0.000000000000000000e+00 9.594353714662434502e-16 -2.441634101902806507e-15 0.000000000000000000e+00 2.569301459220962168e-17 -2.300260770787118991e-15 -4.601432220575914020e-17 -9.225016836144630412e-17 2.929792826192616295e-16 0.000000000000000000e+00 0.000000000000000000e+00 0.000000000000000000e+00 0.000000000000000000e+00 4.221853607944284985e-16 -2.043958584154403079e-15 0.000000000000000000e+00 2.235968461601374528e-16 -1.820819832285131944e-15 -4.601432220575914020e-17 -9.225016836144630412e-17 2.929792826192616295e-16 0.000000000000000000e+00 0.000000000000000000e+00 0.000000000000000000e+00 0.000000000000000000e+00 5.239424144729556680e-16 -1.350907186335732032e-15 0.000000000000000000e+00 1.475723925349720163e-16 -2.433385583276323827e-15
